// GM Drum Kit — sfizz (KSHMR Vol.5) — shared with Dexed pack
<group>
ampeg_attack=0.001 ampeg_release=0.05

<region> sample=/Volumes/External/Code/VST2SFZ/General_MIDI_samples_drums/gm_drum_N35_v064.wav lokey=35 hikey=35 lovel=0 hivel=80
<region> sample=/Volumes/External/Code/VST2SFZ/General_MIDI_samples_drums/gm_drum_N35_v127.wav lokey=35 hikey=35 lovel=81 hivel=127
<region> sample=/Volumes/External/Code/VST2SFZ/General_MIDI_samples_drums/gm_drum_N36_v064.wav lokey=36 hikey=36 lovel=0 hivel=80
<region> sample=/Volumes/External/Code/VST2SFZ/General_MIDI_samples_drums/gm_drum_N36_v127.wav lokey=36 hikey=36 lovel=81 hivel=127
<region> sample=/Volumes/External/Code/VST2SFZ/General_MIDI_samples_drums/gm_drum_N37_v064.wav lokey=37 hikey=37 lovel=0 hivel=80
<region> sample=/Volumes/External/Code/VST2SFZ/General_MIDI_samples_drums/gm_drum_N37_v127.wav lokey=37 hikey=37 lovel=81 hivel=127
<region> sample=/Volumes/External/Code/VST2SFZ/General_MIDI_samples_drums/gm_drum_N38_v064.wav lokey=38 hikey=38 lovel=0 hivel=80
<region> sample=/Volumes/External/Code/VST2SFZ/General_MIDI_samples_drums/gm_drum_N38_v127.wav lokey=38 hikey=38 lovel=81 hivel=127
<region> sample=/Volumes/External/Code/VST2SFZ/General_MIDI_samples_drums/gm_drum_N39_v064.wav lokey=39 hikey=39 lovel=0 hivel=80
<region> sample=/Volumes/External/Code/VST2SFZ/General_MIDI_samples_drums/gm_drum_N39_v127.wav lokey=39 hikey=39 lovel=81 hivel=127
<region> sample=/Volumes/External/Code/VST2SFZ/General_MIDI_samples_drums/gm_drum_N40_v064.wav lokey=40 hikey=40 lovel=0 hivel=80
<region> sample=/Volumes/External/Code/VST2SFZ/General_MIDI_samples_drums/gm_drum_N40_v127.wav lokey=40 hikey=40 lovel=81 hivel=127
<region> sample=/Volumes/External/Code/VST2SFZ/General_MIDI_samples_drums/gm_drum_N41_v064.wav lokey=41 hikey=41 lovel=0 hivel=80
<region> sample=/Volumes/External/Code/VST2SFZ/General_MIDI_samples_drums/gm_drum_N41_v127.wav lokey=41 hikey=41 lovel=81 hivel=127
<region> sample=/Volumes/External/Code/VST2SFZ/General_MIDI_samples_drums/gm_drum_N42_v064.wav lokey=42 hikey=42 lovel=0 hivel=80
<region> sample=/Volumes/External/Code/VST2SFZ/General_MIDI_samples_drums/gm_drum_N42_v127.wav lokey=42 hikey=42 lovel=81 hivel=127
<region> sample=/Volumes/External/Code/VST2SFZ/General_MIDI_samples_drums/gm_drum_N43_v064.wav lokey=43 hikey=43 lovel=0 hivel=80
<region> sample=/Volumes/External/Code/VST2SFZ/General_MIDI_samples_drums/gm_drum_N43_v127.wav lokey=43 hikey=43 lovel=81 hivel=127
<region> sample=/Volumes/External/Code/VST2SFZ/General_MIDI_samples_drums/gm_drum_N44_v064.wav lokey=44 hikey=44 lovel=0 hivel=80
<region> sample=/Volumes/External/Code/VST2SFZ/General_MIDI_samples_drums/gm_drum_N44_v127.wav lokey=44 hikey=44 lovel=81 hivel=127
<region> sample=/Volumes/External/Code/VST2SFZ/General_MIDI_samples_drums/gm_drum_N45_v064.wav lokey=45 hikey=45 lovel=0 hivel=80
<region> sample=/Volumes/External/Code/VST2SFZ/General_MIDI_samples_drums/gm_drum_N45_v127.wav lokey=45 hikey=45 lovel=81 hivel=127
<region> sample=/Volumes/External/Code/VST2SFZ/General_MIDI_samples_drums/gm_drum_N46_v064.wav lokey=46 hikey=46 lovel=0 hivel=80
<region> sample=/Volumes/External/Code/VST2SFZ/General_MIDI_samples_drums/gm_drum_N46_v127.wav lokey=46 hikey=46 lovel=81 hivel=127
<region> sample=/Volumes/External/Code/VST2SFZ/General_MIDI_samples_drums/gm_drum_N47_v064.wav lokey=47 hikey=47 lovel=0 hivel=80
<region> sample=/Volumes/External/Code/VST2SFZ/General_MIDI_samples_drums/gm_drum_N47_v127.wav lokey=47 hikey=47 lovel=81 hivel=127
<region> sample=/Volumes/External/Code/VST2SFZ/General_MIDI_samples_drums/gm_drum_N48_v064.wav lokey=48 hikey=48 lovel=0 hivel=80
<region> sample=/Volumes/External/Code/VST2SFZ/General_MIDI_samples_drums/gm_drum_N48_v127.wav lokey=48 hikey=48 lovel=81 hivel=127
<region> sample=/Volumes/External/Code/VST2SFZ/General_MIDI_samples_drums/gm_drum_N49_v064.wav lokey=49 hikey=49 lovel=0 hivel=80
<region> sample=/Volumes/External/Code/VST2SFZ/General_MIDI_samples_drums/gm_drum_N49_v127.wav lokey=49 hikey=49 lovel=81 hivel=127
<region> sample=/Volumes/External/Code/VST2SFZ/General_MIDI_samples_drums/gm_drum_N50_v064.wav lokey=50 hikey=50 lovel=0 hivel=80
<region> sample=/Volumes/External/Code/VST2SFZ/General_MIDI_samples_drums/gm_drum_N50_v127.wav lokey=50 hikey=50 lovel=81 hivel=127
<region> sample=/Volumes/External/Code/VST2SFZ/General_MIDI_samples_drums/gm_drum_N51_v064.wav lokey=51 hikey=51 lovel=0 hivel=80
<region> sample=/Volumes/External/Code/VST2SFZ/General_MIDI_samples_drums/gm_drum_N51_v127.wav lokey=51 hikey=51 lovel=81 hivel=127
<region> sample=/Volumes/External/Code/VST2SFZ/General_MIDI_samples_drums/gm_drum_N52_v064.wav lokey=52 hikey=52 lovel=0 hivel=80
<region> sample=/Volumes/External/Code/VST2SFZ/General_MIDI_samples_drums/gm_drum_N52_v127.wav lokey=52 hikey=52 lovel=81 hivel=127
<region> sample=/Volumes/External/Code/VST2SFZ/General_MIDI_samples_drums/gm_drum_N53_v064.wav lokey=53 hikey=53 lovel=0 hivel=80
<region> sample=/Volumes/External/Code/VST2SFZ/General_MIDI_samples_drums/gm_drum_N53_v127.wav lokey=53 hikey=53 lovel=81 hivel=127
<region> sample=/Volumes/External/Code/VST2SFZ/General_MIDI_samples_drums/gm_drum_N54_v064.wav lokey=54 hikey=54 lovel=0 hivel=80
<region> sample=/Volumes/External/Code/VST2SFZ/General_MIDI_samples_drums/gm_drum_N54_v127.wav lokey=54 hikey=54 lovel=81 hivel=127
<region> sample=/Volumes/External/Code/VST2SFZ/General_MIDI_samples_drums/gm_drum_N55_v064.wav lokey=55 hikey=55 lovel=0 hivel=80
<region> sample=/Volumes/External/Code/VST2SFZ/General_MIDI_samples_drums/gm_drum_N55_v127.wav lokey=55 hikey=55 lovel=81 hivel=127
<region> sample=/Volumes/External/Code/VST2SFZ/General_MIDI_samples_drums/gm_drum_N56_v064.wav lokey=56 hikey=56 lovel=0 hivel=80
<region> sample=/Volumes/External/Code/VST2SFZ/General_MIDI_samples_drums/gm_drum_N56_v127.wav lokey=56 hikey=56 lovel=81 hivel=127
<region> sample=/Volumes/External/Code/VST2SFZ/General_MIDI_samples_drums/gm_drum_N57_v064.wav lokey=57 hikey=57 lovel=0 hivel=80
<region> sample=/Volumes/External/Code/VST2SFZ/General_MIDI_samples_drums/gm_drum_N57_v127.wav lokey=57 hikey=57 lovel=81 hivel=127
<region> sample=/Volumes/External/Code/VST2SFZ/General_MIDI_samples_drums/gm_drum_N58_v064.wav lokey=58 hikey=58 lovel=0 hivel=80
<region> sample=/Volumes/External/Code/VST2SFZ/General_MIDI_samples_drums/gm_drum_N58_v127.wav lokey=58 hikey=58 lovel=81 hivel=127
<region> sample=/Volumes/External/Code/VST2SFZ/General_MIDI_samples_drums/gm_drum_N59_v064.wav lokey=59 hikey=59 lovel=0 hivel=80
<region> sample=/Volumes/External/Code/VST2SFZ/General_MIDI_samples_drums/gm_drum_N59_v127.wav lokey=59 hikey=59 lovel=81 hivel=127
<region> sample=/Volumes/External/Code/VST2SFZ/General_MIDI_samples_drums/gm_drum_N60_v064.wav lokey=60 hikey=60 lovel=0 hivel=80
<region> sample=/Volumes/External/Code/VST2SFZ/General_MIDI_samples_drums/gm_drum_N60_v127.wav lokey=60 hikey=60 lovel=81 hivel=127
<region> sample=/Volumes/External/Code/VST2SFZ/General_MIDI_samples_drums/gm_drum_N61_v064.wav lokey=61 hikey=61 lovel=0 hivel=80
<region> sample=/Volumes/External/Code/VST2SFZ/General_MIDI_samples_drums/gm_drum_N61_v127.wav lokey=61 hikey=61 lovel=81 hivel=127
<region> sample=/Volumes/External/Code/VST2SFZ/General_MIDI_samples_drums/gm_drum_N62_v064.wav lokey=62 hikey=62 lovel=0 hivel=80
<region> sample=/Volumes/External/Code/VST2SFZ/General_MIDI_samples_drums/gm_drum_N62_v127.wav lokey=62 hikey=62 lovel=81 hivel=127
<region> sample=/Volumes/External/Code/VST2SFZ/General_MIDI_samples_drums/gm_drum_N63_v064.wav lokey=63 hikey=63 lovel=0 hivel=80
<region> sample=/Volumes/External/Code/VST2SFZ/General_MIDI_samples_drums/gm_drum_N63_v127.wav lokey=63 hikey=63 lovel=81 hivel=127
<region> sample=/Volumes/External/Code/VST2SFZ/General_MIDI_samples_drums/gm_drum_N64_v064.wav lokey=64 hikey=64 lovel=0 hivel=80
<region> sample=/Volumes/External/Code/VST2SFZ/General_MIDI_samples_drums/gm_drum_N64_v127.wav lokey=64 hikey=64 lovel=81 hivel=127
<region> sample=/Volumes/External/Code/VST2SFZ/General_MIDI_samples_drums/gm_drum_N65_v064.wav lokey=65 hikey=65 lovel=0 hivel=80
<region> sample=/Volumes/External/Code/VST2SFZ/General_MIDI_samples_drums/gm_drum_N65_v127.wav lokey=65 hikey=65 lovel=81 hivel=127
<region> sample=/Volumes/External/Code/VST2SFZ/General_MIDI_samples_drums/gm_drum_N66_v064.wav lokey=66 hikey=66 lovel=0 hivel=80
<region> sample=/Volumes/External/Code/VST2SFZ/General_MIDI_samples_drums/gm_drum_N66_v127.wav lokey=66 hikey=66 lovel=81 hivel=127
<region> sample=/Volumes/External/Code/VST2SFZ/General_MIDI_samples_drums/gm_drum_N67_v064.wav lokey=67 hikey=67 lovel=0 hivel=80
<region> sample=/Volumes/External/Code/VST2SFZ/General_MIDI_samples_drums/gm_drum_N67_v127.wav lokey=67 hikey=67 lovel=81 hivel=127
<region> sample=/Volumes/External/Code/VST2SFZ/General_MIDI_samples_drums/gm_drum_N68_v064.wav lokey=68 hikey=68 lovel=0 hivel=80
<region> sample=/Volumes/External/Code/VST2SFZ/General_MIDI_samples_drums/gm_drum_N68_v127.wav lokey=68 hikey=68 lovel=81 hivel=127
<region> sample=/Volumes/External/Code/VST2SFZ/General_MIDI_samples_drums/gm_drum_N69_v064.wav lokey=69 hikey=69 lovel=0 hivel=80
<region> sample=/Volumes/External/Code/VST2SFZ/General_MIDI_samples_drums/gm_drum_N69_v127.wav lokey=69 hikey=69 lovel=81 hivel=127
<region> sample=/Volumes/External/Code/VST2SFZ/General_MIDI_samples_drums/gm_drum_N70_v064.wav lokey=70 hikey=70 lovel=0 hivel=80
<region> sample=/Volumes/External/Code/VST2SFZ/General_MIDI_samples_drums/gm_drum_N70_v127.wav lokey=70 hikey=70 lovel=81 hivel=127
<region> sample=/Volumes/External/Code/VST2SFZ/General_MIDI_samples_drums/gm_drum_N71_v064.wav lokey=71 hikey=71 lovel=0 hivel=80
<region> sample=/Volumes/External/Code/VST2SFZ/General_MIDI_samples_drums/gm_drum_N71_v127.wav lokey=71 hikey=71 lovel=81 hivel=127
<region> sample=/Volumes/External/Code/VST2SFZ/General_MIDI_samples_drums/gm_drum_N72_v064.wav lokey=72 hikey=72 lovel=0 hivel=80
<region> sample=/Volumes/External/Code/VST2SFZ/General_MIDI_samples_drums/gm_drum_N72_v127.wav lokey=72 hikey=72 lovel=81 hivel=127
<region> sample=/Volumes/External/Code/VST2SFZ/General_MIDI_samples_drums/gm_drum_N73_v064.wav lokey=73 hikey=73 lovel=0 hivel=80
<region> sample=/Volumes/External/Code/VST2SFZ/General_MIDI_samples_drums/gm_drum_N73_v127.wav lokey=73 hikey=73 lovel=81 hivel=127
<region> sample=/Volumes/External/Code/VST2SFZ/General_MIDI_samples_drums/gm_drum_N74_v064.wav lokey=74 hikey=74 lovel=0 hivel=80
<region> sample=/Volumes/External/Code/VST2SFZ/General_MIDI_samples_drums/gm_drum_N74_v127.wav lokey=74 hikey=74 lovel=81 hivel=127
<region> sample=/Volumes/External/Code/VST2SFZ/General_MIDI_samples_drums/gm_drum_N75_v064.wav lokey=75 hikey=75 lovel=0 hivel=80
<region> sample=/Volumes/External/Code/VST2SFZ/General_MIDI_samples_drums/gm_drum_N75_v127.wav lokey=75 hikey=75 lovel=81 hivel=127
<region> sample=/Volumes/External/Code/VST2SFZ/General_MIDI_samples_drums/gm_drum_N76_v064.wav lokey=76 hikey=76 lovel=0 hivel=80
<region> sample=/Volumes/External/Code/VST2SFZ/General_MIDI_samples_drums/gm_drum_N76_v127.wav lokey=76 hikey=76 lovel=81 hivel=127
<region> sample=/Volumes/External/Code/VST2SFZ/General_MIDI_samples_drums/gm_drum_N77_v064.wav lokey=77 hikey=77 lovel=0 hivel=80
<region> sample=/Volumes/External/Code/VST2SFZ/General_MIDI_samples_drums/gm_drum_N77_v127.wav lokey=77 hikey=77 lovel=81 hivel=127
<region> sample=/Volumes/External/Code/VST2SFZ/General_MIDI_samples_drums/gm_drum_N78_v064.wav lokey=78 hikey=78 lovel=0 hivel=80
<region> sample=/Volumes/External/Code/VST2SFZ/General_MIDI_samples_drums/gm_drum_N78_v127.wav lokey=78 hikey=78 lovel=81 hivel=127
<region> sample=/Volumes/External/Code/VST2SFZ/General_MIDI_samples_drums/gm_drum_N79_v064.wav lokey=79 hikey=79 lovel=0 hivel=80
<region> sample=/Volumes/External/Code/VST2SFZ/General_MIDI_samples_drums/gm_drum_N79_v127.wav lokey=79 hikey=79 lovel=81 hivel=127
<region> sample=/Volumes/External/Code/VST2SFZ/General_MIDI_samples_drums/gm_drum_N80_v064.wav lokey=80 hikey=80 lovel=0 hivel=80
<region> sample=/Volumes/External/Code/VST2SFZ/General_MIDI_samples_drums/gm_drum_N80_v127.wav lokey=80 hikey=80 lovel=81 hivel=127
<region> sample=/Volumes/External/Code/VST2SFZ/General_MIDI_samples_drums/gm_drum_N81_v064.wav lokey=81 hikey=81 lovel=0 hivel=80
<region> sample=/Volumes/External/Code/VST2SFZ/General_MIDI_samples_drums/gm_drum_N81_v127.wav lokey=81 hikey=81 lovel=81 hivel=127
